<svg id="Camada_1" data-name="Camada 1" xmlns="http://www.w3.org/2000/svg" xmlns:xlink="http://www.w3.org/1999/xlink" viewBox="0 0 283 259"><defs><style>.cls-1{fill:#083849;}.cls-2{fill:url(#Gradiente_sem_nome_50);}.cls-3{fill:url(#Gradiente_sem_nome_50-2);}.cls-4{fill:url(#Gradiente_sem_nome_50-3);}.cls-5{fill:url(#Gradiente_sem_nome_50-4);}</style><linearGradient id="Gradiente_sem_nome_50" x1="39.61" y1="211.32" x2="113.73" y2="39.45" gradientUnits="userSpaceOnUse"><stop offset="0" stop-color="#00a99d"/><stop offset="0.17" stop-color="#009ba4"/><stop offset="0.49" stop-color="#0078b8"/><stop offset="0.55" stop-color="#0071bc"/><stop offset="0.64" stop-color="#016db8"/><stop offset="0.74" stop-color="#0560ac"/><stop offset="0.83" stop-color="#0b4b98"/><stop offset="0.93" stop-color="#142f7c"/><stop offset="1" stop-color="#1b1665"/></linearGradient><linearGradient id="Gradiente_sem_nome_50-2" x1="79.61" y1="228.57" x2="153.73" y2="56.7" xlink:href="#Gradiente_sem_nome_50"/><linearGradient id="Gradiente_sem_nome_50-3" x1="166.7" y1="233.61" x2="242.38" y2="58.11" xlink:href="#Gradiente_sem_nome_50"/><linearGradient id="Gradiente_sem_nome_50-4" x1="124.97" y1="215.62" x2="200.66" y2="40.11" xlink:href="#Gradiente_sem_nome_50"/></defs><title>logo-feel</title><path class="cls-1" d="M117,132.61a3.7,3.7,0,0,0,.57-3.08,4,4,0,0,0-1.62-2.35,3.84,3.84,0,0,0-3-.64c-1.7.34-5.19,1.39-10.66,3.21a37.84,37.84,0,0,1-8.48,2c-.26-2.53-.45-4.48-.59-5.85-.58-6.39-.94-11.76-1.08-16,1.64-.21,2.76-.37,3.41-.49l6.16-1.65,7.11-1.83a44.18,44.18,0,0,1,5.79-1.26,3.8,3.8,0,0,0,2.6-1.75,4,4,0,0,0,.6-2.84,3.82,3.82,0,0,0-1.75-2.6,4,4,0,0,0-2.92-.58c-1.92.38-4,.84-6.23,1.36l-7.14,1.91c-2.52.67-4.53,1.18-6,1.51-.18,0-.88.19-3.25.5l-.8.09a4.1,4.1,0,0,0-1.51-.29,3.85,3.85,0,0,0-3.33,1.73,3.69,3.69,0,0,0-1.35,4.79,4.22,4.22,0,0,0,.79,1.21c.16,4.78.53,10.44,1.12,16.88l1,9.12c.5,4.77.85,8.48,1,11.1.18,1.88.31,4.53.37,7.87.06,4.37.12,7.09.19,8.31a3.64,3.64,0,0,0,1.41,2.82,4.11,4.11,0,0,0,2.61.93,3.64,3.64,0,0,0,2.9-1.42,4.12,4.12,0,0,0,.93-2.6v-.1c-.07-1.58-.16-4.27-.29-8s-.09-6.44-.29-8.44-.32-4-.58-6.64a48.74,48.74,0,0,0,10.11-2.31,78.72,78.72,0,0,1,9.67-2.94l.38-.1A4.28,4.28,0,0,0,117,132.61Z"/><path class="cls-1" d="M184.37,146a3.73,3.73,0,0,0-5.23,1.47,13.87,13.87,0,0,0-.95,1.8,10.67,10.67,0,0,1-.65,1.28c-.19.3-.37.57-.55.8a17.13,17.13,0,0,1-4,2.91,33.06,33.06,0,0,1-6.36,2.85,13.87,13.87,0,0,1-5.68.78c-1.39-.19-1.65-.76-1.78-1.06a12,12,0,0,1-.75-4.29,4,4,0,0,0,2.25-.53c1.7-.93,3.76-2.82,6.46-5.94a56,56,0,0,0,6.73-9.11c2.5-4.11,3.51-7.39,3.1-10a6.14,6.14,0,0,0-4.09-5.07,12.34,12.34,0,0,0-6.4-.19c-4.32.89-8.05,3.65-11.06,8.16-2.74,4-4.33,9.57-4.75,16.48a4.35,4.35,0,0,0-.55-.36,3.72,3.72,0,0,0-5.22,1.47,13.87,13.87,0,0,0-.95,1.8,12.2,12.2,0,0,1-.66,1.28,7.91,7.91,0,0,1-.55.8,17,17,0,0,1-4,2.91,33.34,33.34,0,0,1-6.36,2.85,13.91,13.91,0,0,1-5.69.78c-1.38-.19-1.64-.76-1.78-1.06a12.22,12.22,0,0,1-.75-4.29,4,4,0,0,0,2.25-.53c1.7-.93,3.76-2.82,6.46-5.94a56.11,56.11,0,0,0,6.74-9.11c2.49-4.11,3.5-7.39,3.1-10a6.16,6.16,0,0,0-4.09-5.07,12.38,12.38,0,0,0-6.41-.19c-4.32.89-8,3.65-11,8.16-2.85,4.17-4.47,10-4.81,17.26-.27,6,.17,10.24,1.36,12.91a9.53,9.53,0,0,0,7.91,5.64,14.61,14.61,0,0,0,2.12.14,24.14,24.14,0,0,0,7-1.18,40.67,40.67,0,0,0,8.06-3.6,23,23,0,0,0,5.91-4.57,15.46,15.46,0,0,0,1.33-1.85c.23-.38.45-.78.66-1.18a19.89,19.89,0,0,0,1.33,6.6,9.54,9.54,0,0,0,7.92,5.64,14.52,14.52,0,0,0,2.12.14,24.14,24.14,0,0,0,7-1.18A40.93,40.93,0,0,0,177,161a22.77,22.77,0,0,0,5.9-4.57,15.49,15.49,0,0,0,1.34-1.85,19.65,19.65,0,0,0,1.09-2.08l.63-1.26A3.7,3.7,0,0,0,184.37,146Zm-49.7-16.69a19.64,19.64,0,0,1-1.78,3.61,62.48,62.48,0,0,1-5.93,7.93c-1,1.2-1.88,2.08-2.52,2.72a21.57,21.57,0,0,1,3-9.34c1.89-2.72,4-4.32,6.23-4.76C134.08,129.37,134.4,129.32,134.67,129.29Zm34.3,0a19.64,19.64,0,0,1-1.78,3.61,63.45,63.45,0,0,1-5.93,7.93c-1.06,1.2-1.88,2.08-2.53,2.72a21.7,21.7,0,0,1,3-9.34c1.89-2.72,4-4.32,6.23-4.76C168.38,129.37,168.7,129.32,169,129.29Z"/><path class="cls-1" d="M198.12,144.35c-.19-2.69-.51-6.22-1-10.5-.37-3.51-.62-5.69-.72-6.47-.06-.48-.2-1.8-.51-5.4-.25-2.88-.39-5-.42-6.39s0-3.23,0-5.46.09-4.17.27-6v-.25a4,4,0,0,0-3.62-4,3.88,3.88,0,0,0-2.87,1,4.15,4.15,0,0,0-1.33,2.41l0,.19c-.58,6.53-.16,16.45,1.24,29.4.06.79.13,1.39.2,1.84.44,4.2.75,7.52.93,10.15s.3,5.76.33,9.39A66.7,66.7,0,0,1,190,164a3.73,3.73,0,0,0,.79,3,4,4,0,0,0,2.49,1.48,4.6,4.6,0,0,0,.64.05,3.77,3.77,0,0,0,2.38-.85,4,4,0,0,0,1.49-2.56,76.27,76.27,0,0,0,.64-10.91C198.43,150.4,198.31,147.07,198.12,144.35Z"/><path class="cls-2" d="M84.81,217.5l-16.36-.6-8.17-.3-2.05-.07-1,0h-.28c-.28,0-.57,0-.85,0a13.16,13.16,0,0,1-1.67-.23,14,14,0,0,1-5.49-2.45,16.29,16.29,0,0,1-3.34-3.28,21.17,21.17,0,0,1-3.27-6.41,27.13,27.13,0,0,1-1.16-6,29,29,0,0,1-.08-2.94l.07-2.07.15-4.09.6-16.36,2.39-65.42,1.19-32.71.05-1.14c0-.42.06-.83.1-1.25a23.51,23.51,0,0,1,.4-2.47,20.32,20.32,0,0,1,1.7-4.89,13.78,13.78,0,0,1,3.59-4.61,9.28,9.28,0,0,1,3.18-1.7,8,8,0,0,1,2-.33h.76l.51,0,16.36.78L139.5,62,74.08,65.14l-16.36.78-.51,0H57l0,0a2.36,2.36,0,0,0-.36.31,6,6,0,0,0-1.18,2,12.12,12.12,0,0,0-.75,2.89,13.83,13.83,0,0,0-.12,1.58c0,.26,0,.53,0,.8l0,.89,1.19,32.71,2.39,65.42.6,16.36.15,4.09.07,2c0,.39.08.77.14,1.13a8.15,8.15,0,0,0,.56,1.94c.22.51.51.87.53.79s-.08-.18-.41-.45a4.42,4.42,0,0,0-1.78-.81,6.49,6.49,0,0,0-.66-.11h-.1l1,0,2.05-.07,8.17-.3,16.36-.6a10.51,10.51,0,1,1,.76,21Z"/><polygon class="cls-3" points="70.06 187.56 78.32 207 70.06 226.44 116.15 207 70.06 187.56"/><path class="cls-4" d="M197.57,52.23l16.89.33,8.45.17,1.05,0,.7,0c.29,0,.58,0,.86.08a13,13,0,0,1,1.67.32,13.94,13.94,0,0,1,5.31,2.67,16.44,16.44,0,0,1,3.14,3.37,19.44,19.44,0,0,1,1.89,3.31,24.73,24.73,0,0,1,1.85,6.3,24.44,24.44,0,0,1,.31,3.05c0,.5,0,1,0,1.51v.71l0,.53-.29,8.44-.59,16.9-2.36,67.57-.59,16.9-.3,8.45L235.5,195a24.53,24.53,0,0,1-.21,2.56,22.19,22.19,0,0,1-1.27,5.09,16.43,16.43,0,0,1-2.9,4.92,11,11,0,0,1-2.58,2.17,8.7,8.7,0,0,1-3.75,1.22l-.52,0h-.38l-.53,0-1.05-.05-2.12-.09-4.22-.18-16.89-.72L131.5,207l67.58-2.9,16.89-.72,8.08-.36s0-.06.19-.17a3.28,3.28,0,0,0,.57-.62,8.4,8.4,0,0,0,1.15-2.44,13.92,13.92,0,0,0,.53-3.15c0-.55,0-1.1,0-1.65l-.07-2.11-.3-8.45-.59-16.9L223.18,100l-.59-16.9-.29-8.44,0-.53,0-.34c0-.21,0-.41-.07-.61A9.83,9.83,0,0,0,222,72a6.76,6.76,0,0,0-.68-1.74c-.21-.37-.5-.47,0,0a3.92,3.92,0,0,0,1.56.81l.63.13.34,0H224l-1.05,0-8.45.17-16.89.33a9.77,9.77,0,1,1-.39-19.54Z"/><polygon class="cls-5" points="160.5 62 212.73 83.34 200.34 62 212.73 40.66 160.5 62"/></svg>